External Loads File
version=1
nRows=53
nColumns=13
Range=5.000000e-03-10 seconds
endheader
time 	forceRightX 	forceRightY 	forceRightZ 	pointRightX 	pointRightY 	pointRightZ 	forceLeftX 	forceLeftY 	forceLeftZ 	pointLeftX 	pointLeftY 	pointLeftZ 		
2.505000 -152.968456 715.856660 -0.000000 0.385415 0.436291 -0.130336 122.700484 13.960715 -0.000000 0.164891 0.215337 -0.374860
2.510000 -156.745816 721.812284 -0.000000 0.388246 0.431203 -0.129997 130.737962 20.615984 -0.000000 0.160900 0.220687 -0.374891
2.515000 -160.444600 727.642759 -0.000000 0.390914 0.425847 -0.129743 138.582290 26.810828 -0.000000 0.157158 0.226080 -0.374961
2.520000 -164.220459 733.566611 -0.000000 0.393472 0.420476 -0.129639 146.077135 32.236664 -0.000000 0.153648 0.231631 -0.375017
2.525000 -167.544875 739.959108 -0.000000 0.396142 0.414895 -0.129519 153.085439 36.460036 -0.000000 0.150409 0.237304 -0.375031
2.530000 -171.347846 746.842710 -0.000000 0.398214 0.409097 -0.129321 159.437820 39.392550 -0.000000 0.147403 0.243099 -0.375040
2.535000 -175.009922 754.536769 -0.000000 0.400265 0.403221 -0.129205 165.078041 40.670523 -0.000000 0.144676 0.249068 -0.375076
2.540000 -178.604498 763.143540 -0.000000 0.402143 0.397162 -0.129088 169.924686 40.133654 -0.000000 0.142231 0.255147 -0.375141
2.545000 -182.155640 772.723026 -0.000000 0.403630 0.390836 -0.128947 173.884945 37.744908 -0.000000 0.140043 0.261299 -0.375203
2.550000 -185.932036 783.239110 -0.000000 0.405233 0.384612 -0.129091 176.857745 33.682815 -0.000000 0.138210 0.267548 -0.375218
2.555000 -189.747345 794.746881 -0.000000 0.406499 0.378188 -0.129096 178.799750 28.134944 -0.000000 0.136676 0.273849 -0.375236
2.560000 -193.300823 807.333805 -0.000000 0.407555 0.371547 -0.129088 179.727750 21.319050 -0.000000 0.135442 0.280217 -0.375225
2.565000 -196.808344 820.973528 -0.000000 0.408401 0.364829 -0.129060 179.714396 13.595495 -0.000000 0.134460 0.286668 -0.375239
2.570000 -200.736946 835.574262 -0.000000 0.408974 0.358079 -0.128988 178.899448 5.379122 -0.000000 0.133757 0.293080 -0.375277
2.575000 -203.545402 851.502261 -0.000000 0.409338 0.350970 -0.128844 177.454361 -3.364642 -0.000000 0.133401 0.299611 -0.375359
2.580000 -207.111608 868.277870 -0.000000 0.409470 0.344137 -0.128757 175.518879 -11.976491 -0.000000 0.133250 0.306170 -0.375317
2.585000 -209.981182 886.183521 -0.000000 0.409389 0.337208 -0.128758 173.199413 -20.524534 -0.000000 0.133433 0.312818 -0.375257
2.590000 -211.550227 905.228623 -0.000000 0.409083 0.330142 -0.128795 170.552099 -28.893488 -0.000000 0.133865 0.319582 -0.375245
2.595000 -211.683285 925.226712 -0.000000 0.408617 0.322964 -0.128939 167.614840 -36.881505 -0.000000 0.134584 0.326398 -0.375206
2.600000 -211.494555 945.647511 -0.000000 0.407824 0.315934 -0.129050 164.463161 -44.093733 -0.000000 0.135595 0.333078 -0.375197
2.605000 -209.567150 966.519537 -0.000000 0.406811 0.308844 -0.129221 161.054811 -50.623724 -0.000000 0.136878 0.339736 -0.375188
2.610000 -205.694380 987.596326 -0.000000 0.405562 0.301849 -0.129259 157.374694 -56.369480 -0.000000 0.138434 0.346511 -0.375142
2.615000 -199.470039 1008.680391 -0.000000 0.403974 0.294923 -0.129510 153.374583 -61.305121 -0.000000 0.140283 0.353410 -0.375035
2.620000 -192.968443 1029.109320 -0.000000 0.402170 0.287892 -0.129667 149.144207 -65.102434 -0.000000 0.142468 0.359657 -0.375066
2.625000 -184.088058 1049.078729 -0.000000 0.400184 0.281062 -0.129546 144.518669 -68.161280 -0.000000 0.144872 0.366149 -0.374986
2.630000 -172.407029 1068.442275 -0.000000 0.397735 0.274123 -0.130246 139.416361 -70.718519 -0.000000 0.147635 0.372532 -0.374952
2.635000 -158.829830 1086.810481 -0.000000 0.395104 0.267341 -0.130451 133.805043 -72.923697 -0.000000 0.150645 0.378946 -0.374971
2.640000 -142.942899 1103.898088 -0.000000 0.392098 0.260607 -0.130406 127.546183 -75.109429 -0.000000 0.153952 0.385246 -0.374954
2.645000 -125.036750 1119.144072 -0.000000 0.389009 0.254022 -0.130527 120.583264 -77.463604 -0.000000 0.157684 0.391439 -0.374997
2.650000 -105.298407 1131.953553 -0.000000 0.385779 0.247515 -0.130922 112.909895 -80.135301 -0.000000 0.161133 0.397756 -0.374141
2.655000 -82.034086 1141.979974 -0.000000 0.382215 0.241086 -0.131160 104.425014 -83.412559 -0.000000 0.165274 0.403974 -0.374212
2.660000 -57.224391 1148.690264 -0.000000 0.378320 0.234782 -0.131365 95.310403 -87.197573 -0.000000 0.169685 0.409876 -0.374183
2.665000 -32.215136 1151.827412 -0.000000 0.374401 0.228652 -0.131671 85.719153 -91.479910 -0.000000 0.174295 0.415490 -0.374220
2.670000 -6.512899 1151.295164 -0.000000 0.370260 0.222779 -0.131832 75.658114 -96.372604 -0.000000 0.179076 0.421023 -0.374311
2.675000 22.020085 1146.921785 -0.000000 0.366112 0.217004 -0.132138 64.968469 -102.014377 -0.000000 0.184180 0.427301 -0.374387
2.680000 48.509706 1138.597624 -0.000000 0.361718 0.211340 -0.132435 54.087400 -108.073219 -0.000000 0.189421 0.432705 -0.374478
2.685000 73.967241 1126.220697 -0.000000 0.357201 0.205927 -0.132655 42.938724 -114.534148 -0.000000 0.195207 0.437404 -0.374939
2.690000 96.869788 1109.751959 -0.000000 0.352617 0.200633 -0.132843 31.662955 -121.175256 -0.000000 0.200801 0.441806 -0.374803
2.695000 119.212913 1088.913196 -0.000000 0.347878 0.195608 -0.133008 20.036517 -127.827797 -0.000000 0.206545 0.446586 -0.374422
2.700000 139.454665 1063.806876 -0.000000 0.343048 0.190843 -0.133252 8.281251 -134.172464 -0.000000 0.212421 0.451310 -0.374228
2.705000 156.729115 1034.673541 -0.000000 0.338187 0.186322 -0.133372 -3.313246 -139.926196 -0.000000 0.218288 0.455896 -0.374188
2.710000 172.738067 1001.482947 -0.000000 0.333036 0.181889 -0.133491 -14.713057 -144.787331 -0.000000 0.224311 0.460453 -0.373853
2.715000 185.670239 964.831956 -0.000000 0.327906 0.177712 -0.133618 -25.393290 -148.455561 -0.000000 0.230384 0.464760 -0.373661
2.720000 195.420939 925.157547 -0.000000 0.322989 0.173915 -0.133999 -35.096200 -150.643065 -0.000000 0.236603 0.468878 -0.373173
2.725000 203.004899 882.651970 -0.000000 0.317948 0.170110 -0.134288 -43.841810 -151.021108 -0.000000 0.242797 0.472844 -0.373044
2.730000 207.942983 837.788280 -0.000000 0.312735 0.166649 -0.134347 -51.498375 -149.356211 -0.000000 0.248842 0.476515 -0.372429
2.735000 211.074489 790.731520 -0.000000 0.307481 0.163580 -0.134356 -58.226070 -145.441170 -0.000000 0.255103 0.480045 -0.372121
2.740000 211.685327 742.053192 -0.000000 0.302402 0.160528 -0.134543 -63.962577 -139.299192 -0.000000 0.261452 0.483076 -0.371757
2.745000 210.488606 691.956284 -0.000000 0.297193 0.157879 -0.134660 -68.960088 -130.991019 -0.000000 0.267826 0.485834 -0.371505
2.750000 207.356639 640.864648 -0.000000 0.292124 0.155562 -0.134899 -73.363396 -120.740505 -0.000000 0.274341 0.488271 -0.371459
2.755000 202.387016 589.172051 -0.000000 0.287095 0.153385 -0.135322 -77.379554 -108.813327 -0.000000 0.280844 0.490300 -0.371282
2.760000 195.650729 537.395329 -0.000000 0.282113 0.151414 -0.135600 -81.196938 -95.518308 -0.000000 0.287255 0.492065 -0.371162
2.765000 187.543977 486.058501 -0.000000 0.277213 0.149823 -0.135950 -85.016980 -81.133716 -0.000000 0.293691 0.493475 -0.371081
